<svg viewBox="0 0 20 20" fill="none" xmlns="http://www.w3.org/2000/svg"><path d="M7.02157 4.95843C7.31994 5.24575 7.3289 5.72054 7.04158 6.01891L3.93143 9.24867H16.0712L12.9611 6.0189C12.6738 5.72054 12.6827 5.24575 12.9811 4.95843C13.2795 4.67112 13.7543 4.68008 14.0416 4.97844L18.3749 9.47844C18.6546 9.76888 18.6546 10.2285 18.3749 10.5189L14.0416 15.0189C13.7543 15.3173 13.2795 15.3262 12.9811 15.0389C12.6827 14.7516 12.6738 14.2768 12.9611 13.9784L16.0712 10.7487H3.93143L7.04158 13.9784C7.3289 14.2768 7.31994 14.7516 7.02157 15.0389C6.72321 15.3262 6.24842 15.3173 5.9611 15.0189L1.62776 10.5189C1.34808 10.2285 1.34808 9.76888 1.62776 9.47844L5.9611 4.97844C6.24842 4.68008 6.72321 4.67112 7.02157 4.95843Z" fill="#788BA5"/></svg>